<svg width="34" height="34" viewBox="0 0 34 34" fill="none" xmlns="http://www.w3.org/2000/svg">
<path d="M14.4156 8.80817L15.1599 7.99505V12.9427C15.1599 13.3082 15.3051 13.6587 15.5635 13.9172C15.822 14.1756 16.1725 14.3208 16.538 14.3208C16.9035 14.3208 17.2541 14.1756 17.5125 13.9172C17.771 13.6587 17.9162 13.3082 17.9162 12.9427V7.99505L18.6604 8.75304C18.7855 8.89433 18.9383 9.00843 19.1093 9.08825C19.2803 9.16808 19.4659 9.21194 19.6545 9.21711C19.8432 9.22227 20.0308 9.18864 20.206 9.1183C20.3811 9.04796 20.5399 8.9424 20.6725 8.80817C20.8017 8.68005 20.9042 8.52762 20.9742 8.35968C21.0442 8.19174 21.0802 8.0116 21.0802 7.82967C21.0802 7.64773 21.0442 7.4676 20.9742 7.29966C20.9042 7.13171 20.8017 6.97929 20.6725 6.85117L17.5165 3.69516C17.3855 3.56969 17.2309 3.47134 17.0617 3.40575C16.7262 3.26791 16.3498 3.26791 16.0143 3.40575C15.8451 3.47134 15.6906 3.56969 15.5595 3.69516L12.4035 6.79604C12.1367 7.06287 11.9868 7.42476 11.9868 7.8021C11.9868 8.17945 12.1367 8.54134 12.4035 8.80817C12.6703 9.07499 13.0322 9.22489 13.4096 9.22489C13.7869 9.22489 14.1488 9.07499 14.4156 8.80817ZM16.538 17.0772C15.7203 17.0772 14.9209 17.3197 14.241 17.774C13.5611 18.2283 13.0312 18.874 12.7182 19.6295C12.4053 20.385 12.3234 21.2163 12.483 22.0183C12.6425 22.8203 13.0363 23.557 13.6145 24.1352C14.1927 24.7134 14.9294 25.1072 15.7314 25.2667C16.5334 25.4263 17.3647 25.3444 18.1202 25.0315C18.8757 24.7185 19.5214 24.1886 19.9757 23.5087C20.43 22.8288 20.6725 22.0294 20.6725 21.2117C20.6725 20.1151 20.2369 19.0635 19.4616 18.2881C18.6862 17.5128 17.6346 17.0772 16.538 17.0772ZM16.538 22.5898C16.2654 22.5898 15.999 22.509 15.7724 22.3576C15.5457 22.2061 15.3691 21.9909 15.2648 21.7391C15.1605 21.4873 15.1332 21.2101 15.1863 20.9428C15.2395 20.6755 15.3708 20.4299 15.5635 20.2372C15.7563 20.0444 16.0018 19.9132 16.2692 19.86C16.5365 19.8068 16.8136 19.8341 17.0654 19.9384C17.3173 20.0427 17.5325 20.2194 17.6839 20.446C17.8354 20.6726 17.9162 20.9391 17.9162 21.2117C17.9162 21.5772 17.771 21.9277 17.5125 22.1862C17.2541 22.4446 16.9035 22.5898 16.538 22.5898ZM6.89085 21.2117C6.89085 21.4843 6.97167 21.7507 7.12311 21.9773C7.27454 22.204 7.48979 22.3806 7.74161 22.4849C7.99344 22.5893 8.27054 22.6165 8.53788 22.5634C8.80522 22.5102 9.05079 22.3789 9.24353 22.1862C9.43627 21.9935 9.56752 21.7479 9.6207 21.4805C9.67388 21.2132 9.64659 20.9361 9.54228 20.6843C9.43797 20.4324 9.26132 20.2172 9.03468 20.0658C8.80804 19.9143 8.54159 19.8335 8.26901 19.8335C7.9035 19.8335 7.55296 19.9787 7.2945 20.2372C7.03605 20.4956 6.89085 20.8462 6.89085 21.2117ZM26.1852 21.2117C26.1852 20.9391 26.1044 20.6726 25.9529 20.446C25.8015 20.2194 25.5863 20.0427 25.3344 19.9384C25.0826 19.8341 24.8055 19.8068 24.5382 19.86C24.2708 19.9132 24.0253 20.0444 23.8325 20.2372C23.6398 20.4299 23.5085 20.6755 23.4553 20.9428C23.4022 21.2101 23.4295 21.4873 23.5338 21.7391C23.6381 21.9909 23.8147 22.2061 24.0414 22.3576C24.268 22.509 24.5345 22.5898 24.807 22.5898C25.1725 22.5898 25.5231 22.4446 25.7815 22.1862C26.04 21.9277 26.1852 21.5772 26.1852 21.2117ZM27.5634 11.5645H22.0507C21.6852 11.5645 21.3346 11.7097 21.0762 11.9682C20.8177 12.2266 20.6725 12.5772 20.6725 12.9427C20.6725 13.3082 20.8177 13.6587 21.0762 13.9172C21.3346 14.1756 21.6852 14.3208 22.0507 14.3208H27.5634C27.9289 14.3208 28.2794 14.466 28.5379 14.7245C28.7963 14.983 28.9415 15.3335 28.9415 15.699V26.7244C28.9415 27.0899 28.7963 27.4404 28.5379 27.6989C28.2794 27.9573 27.9289 28.1025 27.5634 28.1025H5.51268C5.14717 28.1025 4.79662 27.9573 4.53817 27.6989C4.27971 27.4404 4.13451 27.0899 4.13451 26.7244V15.699C4.13451 15.3335 4.27971 14.983 4.53817 14.7245C4.79662 14.466 5.14717 14.3208 5.51268 14.3208H11.0254C11.3909 14.3208 11.7414 14.1756 11.9999 13.9172C12.2583 13.6587 12.4035 13.3082 12.4035 12.9427C12.4035 12.5772 12.2583 12.2266 11.9999 11.9682C11.7414 11.7097 11.3909 11.5645 11.0254 11.5645H5.51268C4.41614 11.5645 3.36451 12.0001 2.58914 12.7755C1.81377 13.5508 1.37817 14.6025 1.37817 15.699V26.7244C1.37817 27.8209 1.81377 28.8725 2.58914 29.6479C3.36451 30.4233 4.41614 30.8589 5.51268 30.8589H27.5634C28.6599 30.8589 29.7115 30.4233 30.4869 29.6479C31.2623 28.8725 31.6979 27.8209 31.6979 26.7244V15.699C31.6979 14.6025 31.2623 13.5508 30.4869 12.7755C29.7115 12.0001 28.6599 11.5645 27.5634 11.5645Z" fill="#464646"/>
</svg>
