<svg width="34" height="34" viewBox="0 0 34 34" fill="none" xmlns="http://www.w3.org/2000/svg">
<g clip-path="url(#clip0_112_185)">
<path d="M16.538 0.923981C12.4662 0.926884 8.53931 2.43531 5.51267 5.15909V2.30215C5.51267 1.93664 5.36747 1.58609 5.10902 1.32764C4.85056 1.06918 4.50002 0.923981 4.13451 0.923981C3.76899 0.923981 3.41845 1.06918 3.15999 1.32764C2.90154 1.58609 2.75634 1.93664 2.75634 2.30215V6.43665C2.75634 7.53319 3.19194 8.58482 3.96731 9.36019C4.74268 10.1356 5.7943 10.5712 6.89084 10.5712H11.0253C11.3909 10.5712 11.7414 10.426 11.9999 10.1675C12.2583 9.90905 12.4035 9.5585 12.4035 9.19299C12.4035 8.82748 12.2583 8.47694 11.9999 8.21848C11.7414 7.96002 11.3909 7.81482 11.0253 7.81482H6.89084C6.84437 7.80793 6.79835 7.79827 6.75303 7.78588C8.99878 5.52407 11.9599 4.11179 15.131 3.79011C18.3021 3.46843 21.4865 4.25729 24.1407 6.02205C26.7949 7.7868 28.7544 10.418 29.6846 13.4666C30.6149 16.5152 30.4582 19.7922 29.2414 22.7381C28.0246 25.684 25.8231 28.1164 23.0126 29.6199C20.2021 31.1234 16.957 31.6048 13.831 30.9821C10.7051 30.3594 7.8922 28.6711 5.87245 26.2054C3.85271 23.7396 2.75133 20.6493 2.75634 17.462C2.75634 17.0965 2.61114 16.7459 2.35268 16.4875C2.09422 16.229 1.74368 16.0838 1.37817 16.0838C1.01266 16.0838 0.662113 16.229 0.403656 16.4875C0.145199 16.7459 0 17.0965 0 17.462C0 20.7329 0.969938 23.9304 2.78716 26.65C4.60438 29.3697 7.18727 31.4894 10.2092 32.7411C13.2311 33.9929 16.5564 34.3204 19.7644 33.6822C22.9725 33.0441 25.9193 31.469 28.2322 29.1561C30.545 26.8433 32.1201 23.8965 32.7583 20.6884C33.3964 17.4803 33.0689 14.1551 31.8172 11.1332C30.5654 8.11125 28.4457 5.52836 25.7261 3.71114C23.0064 1.89392 19.8089 0.923981 16.538 0.923981V0.923981Z" fill="white"/>
<path d="M16.5381 9.19299C16.1726 9.19299 15.822 9.33819 15.5636 9.59665C15.3051 9.85511 15.1599 10.2056 15.1599 10.5712V17.462C15.16 17.8275 15.3052 18.178 15.5637 18.4364L19.6982 22.5709C19.9581 22.8219 20.3063 22.9608 20.6676 22.9577C21.029 22.9545 21.3746 22.8096 21.6302 22.5541C21.8857 22.2986 22.0306 21.9529 22.0338 21.5915C22.0369 21.2302 21.898 20.8821 21.6469 20.6221L17.9162 16.8914V10.5712C17.9162 10.2056 17.771 9.85511 17.5126 9.59665C17.2541 9.33819 16.9036 9.19299 16.5381 9.19299Z" fill="white"/>
</g>
<defs>
<clipPath id="clip0_112_185">
<rect width="33.076" height="33.076" fill="white" transform="translate(0 0.923981)"/>
</clipPath>
</defs>
</svg>
