<svg width="34" height="34" viewBox="0 0 34 34" fill="none" xmlns="http://www.w3.org/2000/svg">
<g clip-path="url(#clip0_112_178)">
<path d="M31.8649 12.4985L21.4115 2.04372C20.1177 0.753744 18.3653 0.0293579 16.5383 0.0293579C14.7113 0.0293579 12.9588 0.753744 11.6651 2.04372L1.21167 12.4985C0.82637 12.8813 0.520891 13.3368 0.312943 13.8386C0.104995 14.3404 -0.00128618 14.8784 0.000260788 15.4216V28.9511C0.000260788 30.0476 0.435859 31.0992 1.21123 31.8746C1.9866 32.65 3.03823 33.0856 4.13477 33.0856H28.9418C30.0383 33.0856 31.09 32.65 31.8653 31.8746C32.6407 31.0992 33.0763 30.0476 33.0763 28.9511V15.4216C33.0778 14.8784 32.9716 14.3404 32.7636 13.8386C32.5557 13.3368 32.2502 12.8813 31.8649 12.4985ZM20.6728 30.3292H12.4038V24.9075C12.4038 23.811 12.8394 22.7594 13.6147 21.984C14.3901 21.2086 15.4417 20.773 16.5383 20.773C17.6348 20.773 18.6864 21.2086 19.4618 21.984C20.2372 22.7594 20.6728 23.811 20.6728 24.9075V30.3292ZM30.32 28.9511C30.32 29.3166 30.1748 29.6671 29.9163 29.9256C29.6578 30.1841 29.3073 30.3292 28.9418 30.3292H23.4291V24.9075C23.4291 23.08 22.7031 21.3273 21.4108 20.035C20.1186 18.7427 18.3658 18.0167 16.5383 18.0167C14.7107 18.0167 12.958 18.7427 11.6657 20.035C10.3734 21.3273 9.64744 23.08 9.64744 24.9075V30.3292H4.13477C3.76925 30.3292 3.41871 30.1841 3.16025 29.9256C2.9018 29.6671 2.7566 29.3166 2.7566 28.9511V15.4216C2.75788 15.0564 2.90294 14.7063 3.1604 14.4472L13.6138 3.99659C14.3907 3.22334 15.4422 2.78923 16.5383 2.78923C17.6344 2.78923 18.6859 3.22334 19.4628 3.99659L29.9162 14.4514C30.1726 14.7094 30.3176 15.0578 30.32 15.4216V28.9511Z" fill="#464646"/>
</g>
<defs>
<clipPath id="clip0_112_178">
<rect width="33.076" height="33.076" fill="white"/>
</clipPath>
</defs>
</svg>
