<svg width="78" height="86" viewBox="0 0 78 86" fill="none" xmlns="http://www.w3.org/2000/svg">
<path d="M73.7646 35.3075C70.7076 34.7543 67.6062 34.484 64.4996 34.5C62.7146 34.5 60.9721 34.5 59.2296 34.84C57.0603 31.9452 54.2913 29.5532 51.1121 27.8275C53.8429 24.8451 55.359 20.9488 55.3621 16.905C55.3621 12.5541 53.6337 8.38145 50.5572 5.30491C47.4806 2.22838 43.308 0.5 38.9571 0.5C34.6062 0.5 30.4335 2.22838 27.357 5.30491C24.2805 8.38145 22.5521 12.5541 22.5521 16.905C22.5552 20.9488 24.0713 24.8451 26.8021 27.8275C23.6418 29.5622 20.8773 31.9359 18.6846 34.7975C17.0271 34.5 15.2846 34.5 13.4996 34.5C10.3904 34.5121 7.28892 34.8108 4.23459 35.3925C3.24452 35.5735 2.35083 36.1001 1.71264 36.8783C1.07444 37.6566 0.733174 38.6361 0.749589 39.6425V74.705C0.748575 75.3294 0.885144 75.9463 1.14958 76.5119C1.41402 77.0775 1.79984 77.5779 2.27959 77.9775C2.75632 78.3795 3.31566 78.6716 3.91794 78.8332C4.52022 78.9948 5.15067 79.0219 5.76459 78.9125C8.30783 78.3586 10.8976 78.0455 13.4996 77.9775C21.7322 77.9685 29.7863 80.3773 36.6621 84.905L37.2146 85.1175C37.7783 85.3621 38.3851 85.4922 38.9996 85.5C39.4052 85.4949 39.8073 85.4231 40.1896 85.2875H40.4871L41.0396 85.075C47.9808 80.4311 56.1481 77.9602 64.4996 77.9775C67.0962 77.9896 69.6859 78.2457 72.2346 78.7425C72.8485 78.8519 73.479 78.8248 74.0812 78.6632C74.6835 78.5016 75.2429 78.2095 75.7196 77.8075C76.1993 77.4079 76.5852 76.9075 76.8496 76.3419C77.114 75.7763 77.2506 75.1594 77.2496 74.535V39.4725C77.246 38.4807 76.8956 37.5214 76.2591 36.7608C75.6226 36.0001 74.7402 35.486 73.7646 35.3075ZM38.9996 9C40.9905 9.14628 42.8523 10.0404 44.2112 11.5028C45.5701 12.9651 46.3254 14.8875 46.3254 16.8838C46.3254 18.88 45.5701 20.8024 44.2112 22.2647C42.8523 23.7271 40.9905 24.6212 38.9996 24.7675C37.0087 24.6212 35.1468 23.7271 33.788 22.2647C32.4291 20.8024 31.6738 18.88 31.6738 16.8838C31.6738 14.8875 32.4291 12.9651 33.788 11.5028C35.1468 10.0404 37.0087 9.14628 38.9996 9ZM34.7496 74.1525C28.0885 71.0735 20.8379 69.4784 13.4996 69.4775C12.0971 69.4775 10.6946 69.4775 9.24959 69.69V43C12.8135 42.6013 16.4143 42.6728 19.9596 43.2125H20.4271C25.4914 44.1432 30.3444 45.9865 34.7496 48.6525V74.1525ZM38.9996 41.3C37.1097 40.2098 35.1505 39.2444 33.1346 38.41H32.8796C31.4771 37.8575 30.0746 37.305 28.6296 36.88C31.5804 34.5313 35.2285 33.2306 38.9996 33.1825C42.7607 33.2063 46.4077 34.4768 49.3696 36.795C45.7617 37.9214 42.2851 39.4317 38.9996 41.3ZM68.7496 69.69C60.0229 68.8132 51.2202 70.2803 43.2496 73.94V48.44C47.6628 45.8424 52.5188 44.0844 57.5721 43.255H58.4221C61.839 42.7229 65.3106 42.6372 68.7496 43V69.69Z" fill="white"/>
</svg>
