<svg width="94" height="74" viewBox="0 0 94 74" fill="none" xmlns="http://www.w3.org/2000/svg">
<path d="M48.275 37.935C50.5427 35.9721 52.3616 33.5443 53.6082 30.8163C54.8548 28.0884 55.5 25.1243 55.5 22.125C55.5 16.4891 53.2612 11.0841 49.276 7.09898C45.2909 3.11383 39.8859 0.875001 34.25 0.875001C28.6141 0.875001 23.2091 3.11383 19.224 7.09898C15.2388 11.0841 13 16.4891 13 22.125C13 25.1243 13.6452 28.0884 14.8918 30.8163C16.1384 33.5443 17.9573 35.9721 20.225 37.935C14.2756 40.629 9.22798 44.9795 5.68567 50.4663C2.14335 55.9531 0.256255 62.3441 0.25 68.875C0.25 70.0022 0.697766 71.0832 1.4948 71.8802C2.29183 72.6772 3.37283 73.125 4.5 73.125C5.62717 73.125 6.70817 72.6772 7.5052 71.8802C8.30223 71.0832 8.75 70.0022 8.75 68.875C8.75 62.112 11.4366 55.626 16.2188 50.8438C21.001 46.0616 27.487 43.375 34.25 43.375C41.013 43.375 47.499 46.0616 52.2812 50.8438C57.0634 55.626 59.75 62.112 59.75 68.875C59.75 70.0022 60.1978 71.0832 60.9948 71.8802C61.7918 72.6772 62.8728 73.125 64 73.125C65.1272 73.125 66.2082 72.6772 67.0052 71.8802C67.8022 71.0832 68.25 70.0022 68.25 68.875C68.2437 62.3441 66.3566 55.9531 62.8143 50.4663C59.272 44.9795 54.2244 40.629 48.275 37.935ZM34.25 34.875C31.7283 34.875 29.2632 34.1272 27.1665 32.7262C25.0698 31.3252 23.4356 29.334 22.4705 27.0042C21.5055 24.6745 21.253 22.1109 21.745 19.6376C22.237 17.1643 23.4513 14.8925 25.2344 13.1094C27.0175 11.3263 29.2893 10.112 31.7626 9.61999C34.2359 9.12803 36.7995 9.38052 39.1292 10.3455C41.459 11.3106 43.4502 12.9448 44.8512 15.0415C46.2522 17.1382 47 19.6033 47 22.125C47 25.5065 45.6567 28.7495 43.2656 31.1406C40.8745 33.5317 37.6315 34.875 34.25 34.875ZM75.645 36.235C78.3649 33.1722 80.1415 29.3885 80.7612 25.3394C81.3808 21.2904 80.8169 17.1486 79.1375 13.4125C77.4581 9.67644 74.7346 6.50538 71.295 4.28105C67.8554 2.05671 63.8462 0.873905 59.75 0.875001C58.6228 0.875001 57.5418 1.32277 56.7448 2.1198C55.9478 2.91683 55.5 3.99783 55.5 5.125C55.5 6.25217 55.9478 7.33317 56.7448 8.1302C57.5418 8.92723 58.6228 9.375 59.75 9.375C63.1315 9.375 66.3745 10.7183 68.7656 13.1094C71.1567 15.5005 72.5 18.7435 72.5 22.125C72.494 24.3573 71.902 26.5488 70.7833 28.4805C69.6645 30.4122 68.0582 32.0164 66.125 33.1325C65.4949 33.496 64.9686 34.0151 64.5965 34.6401C64.2245 35.2652 64.0191 35.9753 64 36.7025C63.9822 37.424 64.1485 38.1381 64.4831 38.7776C64.8177 39.4171 65.3096 39.9608 65.9125 40.3575L67.57 41.4625L68.1225 41.76C73.2454 44.1898 77.5673 48.033 80.5792 52.8368C83.591 57.6407 85.1673 63.2052 85.1225 68.875C85.1225 70.0022 85.5703 71.0832 86.3673 71.8802C87.1643 72.6772 88.2453 73.125 89.3725 73.125C90.4997 73.125 91.5807 72.6772 92.3777 71.8802C93.1747 71.0832 93.6225 70.0022 93.6225 68.875C93.6572 62.3531 92.0237 55.9306 88.8772 50.2178C85.7307 44.5049 81.1757 39.6916 75.645 36.235Z" fill="white"/>
</svg>
