<svg width="34" height="34" viewBox="0 0 34 34" fill="none" xmlns="http://www.w3.org/2000/svg">
<g clip-path="url(#clip0_112_181)">
<path d="M12.4035 15.9294C12.4035 15.5639 12.5487 15.2134 12.8072 14.9549C13.0656 14.6965 13.4162 14.5513 13.7817 14.5513H19.2944C19.6599 14.5513 20.0104 14.6965 20.2689 14.9549C20.5273 15.2134 20.6725 15.5639 20.6725 15.9294C20.6725 16.295 20.5273 16.6455 20.2689 16.904C20.0104 17.1624 19.6599 17.3076 19.2944 17.3076H13.7817C13.4162 17.3076 13.0656 17.1624 12.8072 16.904C12.5487 16.6455 12.4035 16.295 12.4035 15.9294ZM33.076 25.5766V26.9548C33.0738 28.7817 32.3471 30.5331 31.0553 31.8249C29.7635 33.1167 28.0121 33.8434 26.1852 33.8456H6.89084C5.06395 33.8434 3.31251 33.1167 2.0207 31.8249C0.728888 30.5331 0.00218833 28.7817 0 26.9548L0 25.5766C0.00200458 23.9887 0.551391 22.45 1.55556 21.2199C2.55974 19.9898 3.95729 19.1435 5.51267 18.8236V17.3076C5.51506 15.3705 6.02776 13.4682 6.99915 11.7923C7.97055 10.1164 9.36635 8.72596 11.046 7.76104C11.0433 7.72659 11.0253 7.69627 11.0253 7.66043V6.28227C11.0253 4.82021 11.6061 3.41804 12.64 2.38422C13.6738 1.35039 15.076 0.769592 16.538 0.769592C18.0001 0.769592 19.4022 1.35039 20.4361 2.38422C21.4699 3.41804 22.0507 4.82021 22.0507 6.28227V7.66043C22.0507 7.69627 22.0328 7.72659 22.03 7.76104C23.7097 8.72596 25.1055 10.1164 26.0769 11.7923C27.0483 13.4682 27.561 15.3705 27.5634 17.3076V18.8236C29.1187 19.1435 30.5163 19.9898 31.5205 21.2199C32.5246 22.45 33.074 23.9887 33.076 25.5766ZM13.7817 6.64472C15.5875 6.16144 17.4886 6.16144 19.2944 6.64472V6.28227C19.2944 5.55124 19.004 4.85015 18.487 4.33324C17.9701 3.81633 17.269 3.52593 16.538 3.52593C15.807 3.52593 15.1059 3.81633 14.589 4.33324C14.0721 4.85015 13.7817 5.55124 13.7817 6.28227V6.64472ZM8.26901 23.5576C9.34378 22.4521 10.6293 21.5733 12.0496 20.9732C13.4699 20.3731 14.9961 20.0639 16.538 20.0639C18.0799 20.0639 19.6061 20.3731 21.0264 20.9732C22.4467 21.5733 23.7323 22.4521 24.807 23.5576V17.3076C24.807 15.1145 23.9358 13.0113 22.3851 11.4605C20.8344 9.9098 18.7311 9.0386 16.538 9.0386C14.3449 9.0386 12.2417 9.9098 10.6909 11.4605C9.14021 13.0113 8.26901 15.1145 8.26901 17.3076V23.5576ZM6.89084 31.0893H6.92667C6.01459 29.9035 5.51774 28.4507 5.51267 26.9548V21.6957C4.70933 21.9797 4.01335 22.505 3.51996 23.1997C3.02657 23.8944 2.75987 24.7246 2.75634 25.5766V26.9548C2.75634 28.0513 3.19193 29.103 3.9673 29.8783C4.74267 30.6537 5.7943 31.0893 6.89084 31.0893ZM20.6725 31.0893C21.5707 31.0851 22.443 30.7885 23.1576 30.2445C23.8723 29.7004 24.3903 28.9385 24.6334 28.0739C23.9357 26.5098 22.7998 25.1814 21.3632 24.2492C19.9265 23.317 18.2506 22.8209 16.538 22.8209C14.8254 22.8209 13.1495 23.317 11.7129 24.2492C10.2762 25.1814 9.14038 26.5098 8.44266 28.0739C8.68575 28.9385 9.20378 29.7004 9.9184 30.2445C10.633 30.7885 11.5054 31.0851 12.4035 31.0893H20.6725ZM30.3197 25.5766C30.3162 24.7246 30.0495 23.8944 29.5561 23.1997C29.0627 22.505 28.3667 21.9797 27.5634 21.6957V26.9548C27.5583 28.4507 27.0614 29.9035 26.1494 31.0893H26.1852C27.2817 31.0893 28.3334 30.6537 29.1087 29.8783C29.8841 29.103 30.3197 28.0513 30.3197 26.9548V25.5766Z" fill="#464646"/>
</g>
<defs>
<clipPath id="clip0_112_181">
<rect width="33.076" height="33.076" fill="white" transform="translate(0 0.769592)"/>
</clipPath>
</defs>
</svg>
