<svg width="33" height="41" viewBox="0 0 33 41" fill="none" xmlns="http://www.w3.org/2000/svg">
<path d="M32.1396 20.4711C32.1386 19.9527 31.9317 19.4559 31.5644 19.0901C31.1971 18.7242 30.6995 18.5193 30.1811 18.5203L15.3454 18.5494L19.8323 14.0644C20.0151 13.8824 20.1601 13.6659 20.2589 13.4275C20.3576 13.1891 20.4082 12.9335 20.4077 12.6755C20.4072 12.4175 20.3556 12.1621 20.2559 11.9241C20.1562 11.6861 20.0104 11.4702 19.8268 11.2888C19.6447 11.106 19.4283 10.961 19.1899 10.8622C18.9515 10.7635 18.6959 10.7129 18.4379 10.7134C18.1798 10.7139 17.9244 10.7655 17.6865 10.8652C17.4485 10.9649 17.2326 11.1107 17.0512 11.2943L9.24797 19.1282C9.07039 19.3145 8.93132 19.5339 8.83876 19.7741C8.6442 20.2503 8.64525 20.7841 8.84168 21.2596C8.93518 21.4994 9.07511 21.7183 9.25342 21.9038L17.0874 29.7071C17.27 29.8889 17.4866 30.0331 17.7249 30.1313C17.9632 30.2294 18.2185 30.2797 18.4763 30.2792C18.734 30.2787 18.9891 30.2274 19.2271 30.1283C19.465 30.0292 19.6811 29.8842 19.863 29.7016C20.0448 29.519 20.189 29.3024 20.2872 29.064C20.3853 28.8257 20.4356 28.5704 20.4351 28.3127C20.4346 28.0549 20.3833 27.7998 20.2842 27.5619C20.1851 27.324 20.0401 27.1079 19.8575 26.926L15.353 22.4587L30.1888 22.4296C30.7072 22.4286 31.204 22.2216 31.5698 21.8544C31.9357 21.4871 32.1406 20.9895 32.1396 20.4711ZM6.76758 40.0674L26.314 40.0291C27.8693 40.026 29.3596 39.4053 30.4571 38.3034C31.5546 37.2016 32.1695 35.7088 32.1665 34.1536L32.155 28.2897C32.1539 27.7713 31.947 27.2745 31.5797 26.9087C31.2124 26.5428 30.7149 26.3378 30.1965 26.3389C29.6781 26.3399 29.1813 26.5468 28.8154 26.9141C28.4496 27.2814 28.2446 27.7789 28.2457 28.2973L28.2572 34.1613C28.2582 34.6797 28.0532 35.1773 27.6874 35.5446C27.3215 35.9118 26.8248 36.1188 26.3064 36.1198L6.75991 36.1581C6.2415 36.1592 5.74392 35.9542 5.37664 35.5884C5.00935 35.2225 4.80244 34.7257 4.80142 34.2073L4.74769 6.84229C4.74668 6.32389 4.95163 5.82631 5.31748 5.45903C5.68333 5.09174 6.1801 4.88483 6.6985 4.88381L26.245 4.84543C26.7634 4.84442 27.2609 5.04937 27.6282 5.41522C27.9955 5.78107 28.2024 6.27784 28.2034 6.79624L28.215 12.6602C28.216 13.1786 28.4229 13.6754 28.7902 14.0412C29.1575 14.407 29.655 14.612 30.1734 14.611C30.6918 14.61 31.1886 14.4031 31.5545 14.0358C31.9203 13.6685 32.1253 13.1709 32.1243 12.6525L32.1127 6.78857C32.1097 5.23335 31.4889 3.74305 30.3871 2.64551C29.2852 1.54796 27.7925 0.933087 26.2373 0.936141L6.69083 0.974518C5.13561 0.977571 3.64531 1.5983 2.54777 2.70017C1.45022 3.80203 0.835349 5.29476 0.838402 6.84997L0.89213 34.215C0.895184 35.7702 1.51592 37.2605 2.61778 38.3581C3.71964 39.4556 5.21237 40.0705 6.76758 40.0674Z" fill="#FF3434"/>
</svg>
