<svg width="20" height="20" viewBox="0 0 20 20" fill="none" xmlns="http://www.w3.org/2000/svg">
<g clip-path="url(#clip0_115_225)">
<path d="M19.1167 0.882028C18.5501 0.316359 17.7823 -0.00135803 16.9817 -0.00135803C16.1811 -0.00135803 15.4132 0.316359 14.8467 0.882028L0 15.7287V19.9987H4.27L19.1167 5.15203C19.6821 4.58538 19.9997 3.81755 19.9997 3.01703C19.9997 2.2165 19.6821 1.44867 19.1167 0.882028V0.882028ZM3.58333 18.332H1.66667V16.4154L12.7583 5.33203L14.675 7.24869L3.58333 18.332ZM17.9383 3.97369L15.8492 6.06286L13.9367 4.14619L16.025 2.06036C16.2792 1.8062 16.6239 1.66341 16.9833 1.66341C17.3428 1.66341 17.6875 1.8062 17.9417 2.06036C18.1958 2.31453 18.3386 2.65925 18.3386 3.01869C18.3386 3.37814 18.1958 3.72286 17.9417 3.97703L17.9383 3.97369Z" fill="#FCFCFC"/>
</g>
<defs>
<clipPath id="clip0_115_225">
<rect width="20" height="20" fill="white"/>
</clipPath>
</defs>
</svg>
