<svg width="34" height="34" viewBox="0 0 34 34" fill="none" xmlns="http://www.w3.org/2000/svg">
<path d="M16.9515 17.226C17.6868 16.5895 18.2767 15.8022 18.6809 14.9176C19.0852 14.033 19.2944 13.0718 19.2944 12.0992C19.2944 10.2717 18.5684 8.51895 17.2761 7.22667C15.9838 5.93439 14.2311 5.20839 12.4035 5.20839C10.576 5.20839 8.82324 5.93439 7.53096 7.22667C6.23868 8.51895 5.51268 10.2717 5.51268 12.0992C5.51267 13.0718 5.72189 14.033 6.12614 14.9176C6.53039 15.8022 7.1202 16.5895 7.85556 17.226C5.92632 18.0996 4.28951 19.5104 3.14082 21.2896C1.99214 23.0688 1.3802 25.1413 1.37817 27.2591C1.37817 27.6246 1.52337 27.9751 1.78183 28.2336C2.04029 28.492 2.39083 28.6372 2.75634 28.6372C3.12185 28.6372 3.4724 28.492 3.73085 28.2336C3.98931 27.9751 4.13451 27.6246 4.13451 27.2591C4.13451 25.066 5.00571 22.9627 6.55645 21.412C8.10719 19.8613 10.2104 18.9901 12.4035 18.9901C14.5966 18.9901 16.6999 19.8613 18.2506 21.412C19.8013 22.9627 20.6725 25.066 20.6725 27.2591C20.6725 27.6246 20.8177 27.9751 21.0762 28.2336C21.3346 28.492 21.6852 28.6372 22.0507 28.6372C22.4162 28.6372 22.7668 28.492 23.0252 28.2336C23.2837 27.9751 23.4289 27.6246 23.4289 27.2591C23.4268 25.1413 22.8149 23.0688 21.6662 21.2896C20.5175 19.5104 18.8807 18.0996 16.9515 17.226ZM12.4035 16.2337C11.5858 16.2337 10.7864 15.9912 10.1065 15.5369C9.42659 15.0826 8.89667 14.4369 8.58373 13.6814C8.2708 12.926 8.18893 12.0946 8.34846 11.2926C8.50799 10.4906 8.90176 9.75391 9.47998 9.17569C10.0582 8.59747 10.7949 8.2037 11.5969 8.04417C12.3989 7.88464 13.2302 7.96652 13.9857 8.27945C14.7412 8.59238 15.3869 9.12231 15.8412 9.80222C16.2955 10.4821 16.538 11.2815 16.538 12.0992C16.538 13.1958 16.1024 14.2474 15.3271 15.0228C14.5517 15.7981 13.5001 16.2337 12.4035 16.2337ZM25.8269 16.6747C26.7089 15.6815 27.285 14.4546 27.4859 13.1416C27.6868 11.8286 27.504 10.4855 26.9594 9.27399C26.4148 8.06247 25.5317 7.03418 24.4163 6.31288C23.3009 5.59159 22.0008 5.20803 20.6725 5.20839C20.307 5.20839 19.9565 5.35359 19.698 5.61205C19.4396 5.8705 19.2944 6.22104 19.2944 6.58656C19.2944 6.95207 19.4396 7.30261 19.698 7.56107C19.9565 7.81953 20.307 7.96473 20.6725 7.96473C21.7691 7.96473 22.8207 8.40032 23.5961 9.17569C24.3714 9.95106 24.807 11.0027 24.807 12.0992C24.8051 12.8231 24.6131 13.5338 24.2503 14.1602C23.8876 14.7866 23.3667 15.3068 22.7398 15.6687C22.5354 15.7865 22.3648 15.9549 22.2441 16.1576C22.1235 16.3603 22.0569 16.5905 22.0507 16.8263C22.0449 17.0603 22.0988 17.2919 22.2073 17.4992C22.3158 17.7066 22.4754 17.8829 22.6709 18.0116L23.2084 18.3699L23.3875 18.4664C25.0488 19.2543 26.4502 20.5005 27.4269 22.0583C28.4036 23.6161 28.9147 25.4205 28.9002 27.2591C28.9002 27.6246 29.0454 27.9751 29.3038 28.2336C29.5623 28.492 29.9128 28.6372 30.2784 28.6372C30.6439 28.6372 30.9944 28.492 31.2529 28.2336C31.5113 27.9751 31.6565 27.6246 31.6565 27.2591C31.6678 25.1442 31.1381 23.0615 30.1178 21.209C29.0974 19.3565 27.6203 17.7956 25.8269 16.6747Z" fill="white"/>
</svg>
