<svg width="34" height="34" viewBox="0 0 34 34" fill="none" xmlns="http://www.w3.org/2000/svg">
<g clip-path="url(#clip0_112_182)">
<path d="M24.807 0.154381H11.0254C9.68609 0.156143 8.37637 0.548131 7.25635 1.28241C6.13633 2.01669 5.25456 3.06143 4.71885 4.28889H2.75634C2.39083 4.28889 2.04029 4.43408 1.78183 4.69254C1.52337 4.951 1.37817 5.30154 1.37817 5.66705C1.37817 6.03257 1.52337 6.38311 1.78183 6.64157C2.04029 6.90002 2.39083 7.04522 2.75634 7.04522H4.13451V9.80156H2.75634C2.39083 9.80156 2.04029 9.94676 1.78183 10.2052C1.52337 10.4637 1.37817 10.8142 1.37817 11.1797C1.37817 11.5452 1.52337 11.8958 1.78183 12.1542C2.04029 12.4127 2.39083 12.5579 2.75634 12.5579H4.13451V15.3142H2.75634C2.39083 15.3142 2.04029 15.4594 1.78183 15.7179C1.52337 15.9763 1.37817 16.3269 1.37817 16.6924C1.37817 17.0579 1.52337 17.4085 1.78183 17.6669C2.04029 17.9254 2.39083 18.0706 2.75634 18.0706H4.13451V20.8269H2.75634C2.39083 20.8269 2.04029 20.9721 1.78183 21.2306C1.52337 21.489 1.37817 21.8396 1.37817 22.2051C1.37817 22.5706 1.52337 22.9211 1.78183 23.1796C2.04029 23.438 2.39083 23.5832 2.75634 23.5832H4.13451V26.3396H2.75634C2.39083 26.3396 2.04029 26.4848 1.78183 26.7432C1.52337 27.0017 1.37817 27.3522 1.37817 27.7177C1.37817 28.0833 1.52337 28.4338 1.78183 28.6923C2.04029 28.9507 2.39083 29.0959 2.75634 29.0959H4.71885C5.25456 30.3234 6.13633 31.3681 7.25635 32.1024C8.37637 32.8367 9.68609 33.2287 11.0254 33.2304H24.807C26.6339 33.2282 28.3854 32.5015 29.6772 31.2097C30.969 29.9179 31.6957 28.1665 31.6979 26.3396V7.04522C31.6957 5.21833 30.969 3.46689 29.6772 2.17508C28.3854 0.883269 26.6339 0.156569 24.807 0.154381V0.154381ZM28.9415 26.3396C28.9415 27.4361 28.5059 28.4877 27.7306 29.2631C26.9552 30.0385 25.9036 30.4741 24.807 30.4741H11.0254C9.92881 30.4741 8.87719 30.0385 8.10182 29.2631C7.32645 28.4877 6.89085 27.4361 6.89085 26.3396V7.04522C6.89085 5.94868 7.32645 4.89706 8.10182 4.12169C8.87719 3.34632 9.92881 2.91072 11.0254 2.91072H24.807C25.9036 2.91072 26.9552 3.34632 27.7306 4.12169C28.5059 4.89706 28.9415 5.94868 28.9415 7.04522V26.3396ZM17.9162 16.6924C19.0127 16.6924 20.0644 16.2568 20.8397 15.4814C21.6151 14.7061 22.0507 13.6544 22.0507 12.5579C22.0507 11.4614 21.6151 10.4097 20.8397 9.63436C20.0644 8.85899 19.0127 8.42339 17.9162 8.42339C16.8197 8.42339 15.768 8.85899 14.9927 9.63436C14.2173 10.4097 13.7817 11.4614 13.7817 12.5579C13.7817 13.6544 14.2173 14.7061 14.9927 15.4814C15.768 16.2568 16.8197 16.6924 17.9162 16.6924ZM24.807 24.9614C24.807 25.3269 24.6618 25.6775 24.4034 25.9359C24.1449 26.1944 23.7944 26.3396 23.4289 26.3396C23.0634 26.3396 22.7128 26.1944 22.4544 25.9359C22.1959 25.6775 22.0507 25.3269 22.0507 24.9614C22.0507 23.8649 21.6151 22.8132 20.8397 22.0379C20.0644 21.2625 19.0127 20.8269 17.9162 20.8269C16.8197 20.8269 15.768 21.2625 14.9927 22.0379C14.2173 22.8132 13.7817 23.8649 13.7817 24.9614C13.7817 25.3269 13.6365 25.6775 13.378 25.9359C13.1196 26.1944 12.769 26.3396 12.4035 26.3396C12.038 26.3396 11.6875 26.1944 11.429 25.9359C11.1706 25.6775 11.0254 25.3269 11.0254 24.9614C11.3161 15.8545 24.519 15.8572 24.807 24.9614Z" fill="white"/>
</g>
<defs>
<clipPath id="clip0_112_182">
<rect width="33.076" height="33.076" fill="white" transform="translate(0 0.154388)"/>
</clipPath>
</defs>
</svg>
